{
  "accessors": [
    {
      "bufferView": 2,
      "componentType": 5126,
      "count": 1188,
      "max": [
        0.4144040048122406,
        1,
        0.99634599685668945
      ],
      "min": [
        -0.4144040048122406,
        -1,
        -0.99634599685668945
      ],
      "type": "VEC3"
    },
    {
      "bufferView": 2,
      "byteOffset": 14256,
      "componentType": 5126,
      "count": 1188,
      "max": [
        0.9999956488609314,
        0.99872976541519165,
        0.99894046783447266
      ],
      "min": [
        -0.9999956488609314,
        -0.99873137474060059,
        -0.99893349409103394
      ],
      "type": "VEC3"
    },
    {
      "bufferView": 3,
      "componentType": 5126,
      "count": 1188,
      "max": [
        0.9333149790763855,
        0.93259400129318237,
        0.99863898754119873,
        1
      ],
      "min": [
        -0.93187600374221802,
        -0.99893200397491455,
        -0.93229597806930542,
        1
      ],
      "type": "VEC4"
    },
    {
      "bufferView": 1,
      "componentType": 5126,
      "count": 1188,
      "max": [
        0.76079398393630981,
        0.99988102912902832
      ],
      "min": [
        0.00011881600221386179,
        0.00011881600221386179
      ],
      "type": "VEC2"
    },
    {
      "bufferView": 0,
      "componentType": 5125,
      "count": 6528,
      "max": [
        1187
      ],
      "min": [
        0
      ],
      "type": "SCALAR"
    },
    {
      "bufferView": 2,
      "byteOffset": 28512,
      "componentType": 5126,
      "count": 754,
      "max": [
        0.39614200592041016,
        0.94196599721908569,
        -0.18705500662326813
      ],
      "min": [
        -0.39614200592041016,
        0.90952998399734497,
        -0.97933900356292725
      ],
      "type": "VEC3"
    },
    {
      "bufferView": 2,
      "byteOffset": 37560,
      "componentType": 5126,
      "count": 754,
      "max": [
        1,
        0.87703531980514526,
        1
      ],
      "min": [
        -1,
        -1,
        -1
      ],
      "type": "VEC3"
    },
    {
      "bufferView": 3,
      "byteOffset": 19008,
      "componentType": 5126,
      "count": 754,
      "max": [
        0.58142399787902832,
        1,
        0.99867302179336548,
        1
      ],
      "min": [
        -0.99967598915100098,
        -1,
        -0.99866998195648193,
        1
      ],
      "type": "VEC4"
    },
    {
      "bufferView": 1,
      "byteOffset": 9504,
      "componentType": 5126,
      "count": 754,
      "max": [
        0.97659599781036377,
        0.6627429723739624
      ],
      "min": [
        0.77365899085998535,
        0.018247999250888824
      ],
      "type": "VEC2"
    },
    {
      "bufferView": 0,
      "byteOffset": 26112,
      "componentType": 5125,
      "count": 2400,
      "max": [
        753
      ],
      "min": [
        0
      ],
      "type": "SCALAR"
    },
    {
      "bufferView": 2,
      "byteOffset": 46608,
      "componentType": 5126,
      "count": 318,
      "max": [
        0.39594000577926636,
        -0.1896589994430542,
        0.93863600492477417
      ],
      "min": [
        -0.39023399353027344,
        -0.97583299875259399,
        0.92362701892852783
      ],
      "type": "VEC3"
    },
    {
      "bufferView": 2,
      "byteOffset": 50424,
      "componentType": 5126,
      "count": 318,
      "max": [
        0.89347302913665771,
        0.89348500967025757,
        0.8769727349281311
      ],
      "min": [
        -0.89347302913665771,
        -0.89348500967025757,
        -0.94679921865463257
      ],
      "type": "VEC3"
    },
    {
      "bufferView": 3,
      "byteOffset": 31072,
      "componentType": 5126,
      "count": 318,
      "max": [
        1,
        0.97329199314117432,
        0.89348798990249634,
        1
      ],
      "min": [
        -1,
        -1,
        -0.89348500967025757,
        1
      ],
      "type": "VEC4"
    },
    {
      "bufferView": 1,
      "byteOffset": 15536,
      "componentType": 5126,
      "count": 318,
      "max": [
        0.98354297876358032,
        0.97610199451446533
      ],
      "min": [
        0.67125999927520752,
        0.66381901502609253
      ],
      "type": "VEC2"
    },
    {
      "bufferView": 0,
      "byteOffset": 35712,
      "componentType": 5125,
      "count": 960,
      "max": [
        317
      ],
      "min": [
        0
      ],
      "type": "SCALAR"
    }
  ],
  "asset": {
    "extras": {
      "author": "paethon (https://sketchfab.com/paethon)",
      "license": "CC-BY-4.0 (http://creativecommons.org/licenses/by/4.0/)",
      "source": "https://sketchfab.com/3d-models/pipe-bent-ad17ef7161874f4890b4a89abb0850c2",
      "title": "Pipe Bent"
    },
    "generator": "Sketchfab-5.98.0",
    "version": "2.0"
  },
  "bufferViews": [
    {
      "buffer": 0,
      "byteLength": 39552,
      "byteOffset": 0,
      "name": "floatBufferViews",
      "target": 34963
    },
    {
      "buffer": 0,
      "byteLength": 18080,
      "byteOffset": 39552,
      "byteStride": 8,
      "name": "floatBufferViews",
      "target": 34962
    },
    {
      "buffer": 0,
      "byteLength": 54240,
      "byteOffset": 57632,
      "byteStride": 12,
      "name": "floatBufferViews",
      "target": 34962
    },
    {
      "buffer": 0,
      "byteLength": 36160,
      "byteOffset": 111872,
      "byteStride": 16,
      "name": "floatBufferViews",
      "target": 34962
    }
  ],
  "buffers": [
    {
      "byteLength": 148032,
      "uri": "scene.bin"
    }
  ],
  "images": [
    {
      "uri": "textures/DefaultMaterial_baseColor.jpeg"
    },
    {
      "uri": "textures/DefaultMaterial_metallicRoughness.png"
    },
    {
      "uri": "textures/DefaultMaterial_normal.png"
    }
  ],
  "materials": [
    {
      "doubleSided": true,
      "name": "DefaultMaterial",
      "normalTexture": {
        "index": 2,
        "scale": 1,
        "texCoord": 0
      },
      "occlusionTexture": {
        "index": 1,
        "strength": 1,
        "texCoord": 0
      },
      "pbrMetallicRoughness": {
        "baseColorFactor": [
          1,
          1,
          1,
          1
        ],
        "baseColorTexture": {
          "index": 0,
          "texCoord": 0
        },
        "metallicFactor": 1,
        "metallicRoughnessTexture": {
          "index": 1,
          "texCoord": 0
        },
        "roughnessFactor": 1
      }
    }
  ],
  "meshes": [
    {
      "name": "defaultMaterial",
      "primitives": [
        {
          "attributes": {
            "NORMAL": 1,
            "POSITION": 0,
            "TANGENT": 2,
            "TEXCOORD_0": 3
          },
          "indices": 4,
          "material": 0,
          "mode": 4
        }
      ]
    },
    {
      "name": "defaultMaterial",
      "primitives": [
        {
          "attributes": {
            "NORMAL": 6,
            "POSITION": 5,
            "TANGENT": 7,
            "TEXCOORD_0": 8
          },
          "indices": 9,
          "material": 0,
          "mode": 4
        }
      ]
    },
    {
      "name": "defaultMaterial",
      "primitives": [
        {
          "attributes": {
            "NORMAL": 11,
            "POSITION": 10,
            "TANGENT": 12,
            "TEXCOORD_0": 13
          },
          "indices": 14,
          "material": 0,
          "mode": 4
        }
      ]
    }
  ],
  "nodes": [
    {
      "children": [
        1
      ],
      "name": "RootNode (gltf orientation matrix)",
      "rotation": [
        -0.70710678118654746,
        -0,
        -0,
        0.70710678118654757
      ]
    },
    {
      "children": [
        2
      ],
      "name": "RootNode (model correction matrix)"
    },
    {
      "children": [
        3,
        5,
        7
      ],
      "matrix": [
        1,
        0,
        0,
        0,
        0,
        -4.3711390063094768e-08,
        0.999999999999999,
        0,
        0,
        -0.999999999999999,
        -4.3711390063094768e-08,
        0,
        0,
        0,
        0,
        1
      ],
      "name": "Collada visual scene group"
    },
    {
      "children": [
        4
      ],
      "name": "pipe_lo"
    },
    {
      "mesh": 0,
      "name": "defaultMaterial"
    },
    {
      "children": [
        6
      ],
      "name": "nut_lo"
    },
    {
      "mesh": 1,
      "name": "defaultMaterial"
    },
    {
      "children": [
        8
      ],
      "name": "screw_lo"
    },
    {
      "mesh": 2,
      "name": "defaultMaterial"
    }
  ],
  "samplers": [
    {
      "magFilter": 9729,
      "minFilter": 9987,
      "wrapS": 10497,
      "wrapT": 10497
    }
  ],
  "scene": 0,
  "scenes": [
    {
      "name": "OSG_Scene",
      "nodes": [
        0
      ]
    }
  ],
  "textures": [
    {
      "sampler": 0,
      "source": 0
    },
    {
      "sampler": 0,
      "source": 1
    },
    {
      "sampler": 0,
      "source": 2
    }
  ]
}

